<svg width="49" height="49" viewBox="0 0 49 49" fill="none" xmlns="http://www.w3.org/2000/svg">
    <path fill-rule="evenodd" clip-rule="evenodd"
        d="M28.315 0.294007C27.9744 0.24069 27.6267 0.254979 27.2916 0.336056C26.9565 0.417133 26.6407 0.563412 26.3622 0.76654C26.0837 0.969668 25.8479 1.22567 25.6683 1.51992C25.4887 1.81418 25.3688 2.14092 25.3155 2.48151C25.2622 2.82209 25.2765 3.16984 25.3575 3.5049C25.4386 3.83996 25.5849 4.15577 25.788 4.4343C25.9912 4.71283 26.2472 4.94862 26.5414 5.12822C26.8357 5.30781 27.1624 5.42769 27.503 5.48101C32.2779 6.24989 36.5886 8.78734 39.5784 12.589C42.5681 16.3906 44.0179 21.178 43.6395 25.9996C43.2612 30.8212 41.0824 35.3238 37.5363 38.6126C33.9902 41.9013 29.3364 43.7353 24.5 43.75C20.6402 43.7507 16.8693 42.5915 13.6764 40.4227C10.4835 38.254 8.01599 35.1758 6.594 31.5875C6.47457 31.257 6.29 30.9539 6.05123 30.696C5.81246 30.4382 5.52435 30.231 5.20399 30.0865C4.88363 29.9421 4.53753 29.8635 4.18622 29.8554C3.83491 29.8472 3.48554 29.9097 3.15881 30.039C2.83209 30.1684 2.53467 30.3621 2.28419 30.6085C2.0337 30.855 1.83525 31.1492 1.70061 31.4738C1.56596 31.7984 1.49785 32.1467 1.50032 32.4981C1.50279 32.8495 1.5758 33.1968 1.715 33.5195C3.81768 38.8165 7.70073 43.2151 12.6961 45.9585C17.6914 48.7018 23.4867 49.6184 29.0849 48.5506C34.683 47.4828 39.734 44.4973 43.3688 40.1077C47.0035 35.7182 48.9948 30.1991 49 24.5C48.9997 18.663 46.9161 13.0177 43.124 8.58017C39.332 4.14265 34.0806 1.20433 28.315 0.294007ZM21.574 2.31351C21.6603 2.64766 21.6798 2.99555 21.6315 3.33726C21.5831 3.67897 21.4679 4.0078 21.2924 4.30493C21.1168 4.60206 20.8844 4.86165 20.6084 5.06886C20.3324 5.27607 20.0183 5.42683 19.684 5.51251C18.8072 5.73812 17.9475 6.02585 17.1115 6.37351C16.7932 6.50588 16.452 6.57426 16.1072 6.57475C15.7625 6.57525 15.4211 6.50783 15.1024 6.37637C14.7837 6.24491 14.4941 6.05196 14.25 5.80856C14.0059 5.56515 13.8121 5.27605 13.6798 4.95776C13.5474 4.63947 13.479 4.29822 13.4785 3.9535C13.478 3.60878 13.5454 3.26734 13.6769 2.94867C13.8084 2.63 14.0013 2.34035 14.2447 2.09625C14.4881 1.85215 14.7772 1.65838 15.0955 1.52601C16.1525 1.08501 17.248 0.717507 18.3785 0.427007C18.7124 0.34126 19.06 0.322129 19.4013 0.370707C19.7426 0.419285 20.071 0.534621 20.3677 0.710127C20.6645 0.885633 20.9237 1.11787 21.1307 1.39358C21.3377 1.66929 21.4883 1.98307 21.574 2.31701V2.31351ZM11.1475 6.62901C11.6317 7.12858 11.8978 7.79994 11.8873 8.49559C11.8768 9.19125 11.5906 9.85428 11.0915 10.339C9.7901 11.6074 8.67108 13.0504 7.7665 14.6265C7.60012 14.9344 7.37385 15.2059 7.10102 15.425C6.82819 15.6441 6.51429 15.8065 6.17778 15.9026C5.84128 15.9987 5.48896 16.0265 5.14155 15.9844C4.79414 15.9423 4.45866 15.8312 4.15482 15.6576C3.85098 15.484 3.58492 15.2513 3.37229 14.9734C3.15966 14.6954 3.00476 14.3778 2.91668 14.0391C2.8286 13.7004 2.80914 13.3475 2.85942 13.0012C2.90971 12.6549 3.02874 12.3222 3.2095 12.0225C4.35578 10.0164 5.77912 8.18183 7.4375 6.57301C7.93707 6.08878 8.60844 5.82269 9.30409 5.83319C9.99974 5.84369 10.6628 6.12993 11.1475 6.62901ZM3.206 18.48C3.89516 18.5772 4.51752 18.944 4.93626 19.4999C5.35499 20.0559 5.53583 20.7553 5.439 21.4445C5.31276 22.3431 5.24961 23.2495 5.25 24.157C5.25 24.8532 4.97344 25.5209 4.48116 26.0132C3.98887 26.5054 3.32119 26.782 2.625 26.782C1.92881 26.782 1.26113 26.5054 0.768845 26.0132C0.276562 25.5209 0 24.8532 0 24.157C0 22.9915 0.0805 21.84 0.2415 20.713C0.338663 20.0238 0.705529 19.4015 1.26144 18.9827C1.81735 18.564 2.5168 18.3832 3.206 18.48ZM15.75 31.087V17.913C15.7503 17.3166 15.903 16.7302 16.1936 16.2095C16.4842 15.6887 16.903 15.2508 17.4104 14.9373C17.9177 14.6239 18.4968 14.4453 19.0925 14.4184C19.6883 14.3916 20.281 14.5174 20.8145 14.784L33.9885 21.371C34.5691 21.662 35.0573 22.1088 35.3984 22.6614C35.7396 23.214 35.9203 23.8506 35.9203 24.5C35.9203 25.1494 35.7396 25.786 35.3984 26.3386C35.0573 26.8912 34.5691 27.338 33.9885 27.629L20.8145 34.216C20.281 34.4826 19.6883 34.6084 19.0925 34.5816C18.4968 34.5548 17.9177 34.3761 17.4104 34.0627C16.903 33.7492 16.4842 33.3113 16.1936 32.7905C15.903 32.2698 15.7503 31.6834 15.75 31.087Z"
        fill="#990811" />
</svg>